<svg xmlns="http://www.w3.org/2000/svg" viewBox="0 0 400 300" width="400" height="300">
  <rect width="400" height="300" fill="#F0F5F4"/>
  <circle cx="330" cy="52" r="26" fill="#FDE68A" opacity="0.7"/>
  <rect x="0" y="228" width="400" height="72" fill="#E0E8E6"/>
  <!-- building -->
  <rect x="70" y="78" width="230" height="150" rx="6" fill="#FFFFFF" stroke="#0F2C2A" stroke-width="3"/>
  <rect x="70" y="78" width="230" height="34" rx="6" fill="#0D9488"/>
  <text x="185" y="101" text-anchor="middle" font-family="Verdana, sans-serif" font-size="15" font-weight="bold" fill="#FFFFFF">PATLE HEALTH CARE</text>
  <!-- windows -->
  <rect x="90" y="128" width="44" height="34" rx="3" fill="#CCFBF1" stroke="#0F2C2A" stroke-width="2.5"/>
  <rect x="150" y="128" width="44" height="34" rx="3" fill="#CCFBF1" stroke="#0F2C2A" stroke-width="2.5"/>
  <rect x="236" y="128" width="44" height="34" rx="3" fill="#CCFBF1" stroke="#0F2C2A" stroke-width="2.5"/>
  <!-- door -->
  <rect x="150" y="176" width="70" height="52" rx="4" fill="#14B8A6" stroke="#0F2C2A" stroke-width="3"/>
  <line x1="185" y1="176" x2="185" y2="228" stroke="#0F2C2A" stroke-width="2.5"/>
  <!-- cross sign -->
  <rect x="308" y="120" width="42" height="42" rx="8" fill="#FFFFFF" stroke="#0F2C2A" stroke-width="3"/>
  <rect x="323" y="128" width="12" height="26" rx="2" fill="#0D9488"/>
  <rect x="316" y="135" width="26" height="12" rx="2" fill="#0D9488"/>
  <line x1="329" y1="162" x2="329" y2="228" stroke="#0F2C2A" stroke-width="4"/>
  <!-- tree -->
  <circle cx="42" cy="180" r="26" fill="#99F6E4"/>
  <circle cx="30" cy="196" r="18" fill="#5EEAD4"/>
  <rect x="38" y="198" width="8" height="30" rx="3" fill="#0F2C2A"/>
</svg>
