<svg xmlns="http://www.w3.org/2000/svg" viewBox="0 0 400 300" width="400" height="300">
  <rect width="400" height="300" fill="#FAF9F6"/>
  <rect x="0" y="0" width="400" height="190" fill="#F0F5F4"/>
  <rect x="0" y="258" width="400" height="42" fill="#E0E8E6"/>
  <!-- certificates -->
  <rect x="52" y="36" width="64" height="46" rx="4" fill="#FFFFFF" stroke="#0F2C2A" stroke-width="3"/>
  <line x1="64" y1="52" x2="104" y2="52" stroke="#5EEAD4" stroke-width="3"/>
  <line x1="64" y1="62" x2="96" y2="62" stroke="#E0E8E6" stroke-width="3"/>
  <circle cx="102" cy="72" r="5" fill="#0D9488"/>
  <rect x="136" y="30" width="64" height="46" rx="4" fill="#FFFFFF" stroke="#0F2C2A" stroke-width="3"/>
  <line x1="148" y1="46" x2="188" y2="46" stroke="#5EEAD4" stroke-width="3"/>
  <line x1="148" y1="56" x2="180" y2="56" stroke="#E0E8E6" stroke-width="3"/>
  <circle cx="186" cy="66" r="5" fill="#0D9488"/>
  <!-- skeleton model -->
  <g stroke="#0F2C2A" stroke-width="3" fill="none">
    <circle cx="330" cy="96" r="14" fill="#FFFFFF"/>
    <line x1="330" y1="110" x2="330" y2="170"/>
    <line x1="312" y1="126" x2="348" y2="126"/>
    <line x1="316" y1="142" x2="344" y2="142"/>
    <line x1="330" y1="170" x2="316" y2="210"/>
    <line x1="330" y1="170" x2="344" y2="210"/>
    <line x1="306" y1="214" x2="354" y2="214" stroke-width="4"/>
    <line x1="330" y1="214" x2="330" y2="252"/>
  </g>
  <!-- doctor's desk -->
  <rect x="88" y="156" width="180" height="16" rx="4" fill="#0D9488"/>
  <rect x="96" y="172" width="12" height="86" fill="#0F2C2A"/>
  <rect x="248" y="172" width="12" height="86" fill="#0F2C2A"/>
  <!-- papers + stethoscope on desk -->
  <rect x="112" y="142" width="40" height="12" rx="2" fill="#FFFFFF" stroke="#0F2C2A" stroke-width="2.5"/>
  <path d="M 190 140 q 14 14 30 4" stroke="#115E59" stroke-width="3.5" fill="none" stroke-linecap="round"/>
  <circle cx="224" cy="141" r="6" fill="none" stroke="#115E59" stroke-width="3"/>
  <!-- chairs -->
  <g fill="#14B8A6" stroke="#0F2C2A" stroke-width="3">
    <rect x="36" y="196" width="44" height="10" rx="4"/>
    <rect x="30" y="162" width="10" height="44" rx="3"/>
    <rect x="38" y="206" width="7" height="52"/>
    <rect x="72" y="206" width="7" height="52"/>
  </g>
</svg>
