<svg xmlns="http://www.w3.org/2000/svg" viewBox="0 0 400 300" width="400" height="300">
  <rect width="400" height="300" fill="#F0F5F4"/>
  <rect x="0" y="256" width="400" height="44" fill="#E0E8E6"/>
  <!-- lightbox with bone film -->
  <rect x="40" y="40" width="120" height="150" rx="6" fill="#0F2C2A"/>
  <rect x="50" y="50" width="100" height="130" rx="4" fill="#115E59"/>
  <!-- femur bone -->
  <g fill="#F0FDFA">
    <circle cx="88" cy="72" r="9"/>
    <circle cx="108" cy="70" r="8"/>
    <rect x="90" y="74" width="18" height="76" rx="8" transform="rotate(6 99 112)"/>
    <circle cx="102" cy="152" r="9"/>
    <circle cx="120" cy="148" r="8"/>
  </g>
  <!-- x-ray machine -->
  <rect x="210" y="196" width="160" height="18" rx="6" fill="#FFFFFF" stroke="#0F2C2A" stroke-width="3"/>
  <rect x="200" y="214" width="180" height="10" rx="4" fill="#0D9488"/>
  <rect x="222" y="224" width="14" height="32" fill="#0F2C2A"/>
  <rect x="344" y="224" width="14" height="32" fill="#0F2C2A"/>
  <!-- arm + head -->
  <rect x="282" y="60" width="14" height="70" rx="4" fill="#0F2C2A"/>
  <rect x="240" y="42" width="98" height="20" rx="8" fill="#0D9488"/>
  <rect x="262" y="126" width="56" height="34" rx="8" fill="#FFFFFF" stroke="#0F2C2A" stroke-width="3"/>
  <circle cx="290" cy="143" r="8" fill="#5EEAD4" stroke="#0F2C2A" stroke-width="2.5"/>
  <!-- beam -->
  <path d="M 276 160 L 250 196 L 330 196 L 304 160 Z" fill="#99F6E4" opacity="0.55"/>
</svg>
